<svg xmlns="http://www.w3.org/2000/svg" width="16.028" height="13.729" viewBox="0 0 16.028 13.729">
  <path id="Icon_metro-warning" data-name="Icon metro-warning" d="M10.585,3.172,17.3,14.638H3.868L10.585,3.172Zm0-1.244a1.167,1.167,0,0,0-.953.6L2.79,14.206c-.524.8-.078,1.451.991,1.451H17.388c1.069,0,1.515-.653.991-1.451h0L11.538,2.527A1.167,1.167,0,0,0,10.585,1.928Zm1,11.155a.938.938,0,0,1-1,.858.938.938,0,0,1-1-.858.938.938,0,0,1,1-.858A.938.938,0,0,1,11.587,13.083Zm-1-1.716a.938.938,0,0,1-1-.858V7.935a.938.938,0,0,1,1-.858.938.938,0,0,1,1,.858v2.574A.938.938,0,0,1,10.585,11.367Z" transform="translate(-2.571 -1.928)" fill="#ff9d46"/>
</svg>
